<?xml version="1.0" encoding="iso-8859-1"?>
<!-- Generator: Adobe Illustrator 19.0.0, SVG Export Plug-In . SVG Version: 6.00 Build 0)  -->
<svg version="1.1" id="Layer_1" xmlns="http://www.w3.org/2000/svg" xmlns:xlink="http://www.w3.org/1999/xlink" x="0px" y="0px"
	 viewBox="0 0 512 512" style="enable-background:new 0 0 512 512;" xml:space="preserve">
<path style="fill:#FFCB5B;" d="M22.64,136.001h465.359c13.255,0,24,10.745,24,24v321.359c0,12.503-10.136,22.64-22.64,22.64l0,0
	H22.64C10.137,504,0,493.864,0,481.36l0,0v-322.72C0,146.136,10.137,136.001,22.64,136.001z"/>
<path style="fill:#FFDB6F;" d="M503.999,172.56L280,298.721c-14.606,8.21-32.435,8.21-47.04,0L8,172.56
	c-4.97-2.869-8.023-8.182-8-13.92l0,0C0,146.136,10.136,136,22.64,136h466.72c12.503,0,22.64,10.136,22.64,22.64l0,0l0,0
	C512.022,164.38,508.97,169.691,503.999,172.56z"/>
<path style="fill:#F7B84E;" d="M511.999,159.2c-0.173,5.538-3.2,10.592-8,13.36L280,298.721c-14.606,8.21-32.435,8.21-47.04,0
	L8,172.56c-4.8-2.768-7.827-7.822-8-13.36l0,0v0.8v16c-0.011,5.528,2.832,10.67,7.52,13.6l223.039,139.36l0,0
	c15.392,8.787,25.047,25.001,25.44,42.72v51.76c0,26.819-21.741,48.56-48.56,48.56H72.001c-17.674,0-32,14.327-32,32H489.36
	c12.503,0,22.64-10.136,22.64-22.64l0,0V160C511.999,160,511.999,159.52,511.999,159.2L511.999,159.2z"/>
<path style="fill:#F19920;" d="M279.52,298.8c-14.606,8.21-32.435,8.21-47.04,0l-224-125.839c0.827,0.782,1.71,1.504,2.64,2.16
	l219.36,136c15.507,9.629,35.133,9.629,50.639,0l219.36-136c0.93-0.656,1.812-1.378,2.64-2.16L279.52,298.8z"/>
<g>
	<path style="fill:#FFE278;" d="M211.92,241.04L148.88,206c-7.733-4.276-10.535-14.011-6.259-21.744
		c2.862-5.176,8.346-8.351,14.259-8.256H160c4.418,0,8-3.582,8-8c0-4.418-3.582-8-8-8H64.001c-2.869-0.011-5.525,1.515-6.96,4
		c-2.143,3.864-0.749,8.733,3.114,10.877c0.002,0.001,0.004,0.002,0.006,0.003l144,80c3.543,2.639,8.556,1.905,11.194-1.639
		c2.639-3.543,1.905-8.556-1.639-11.194C213.162,241.636,212.559,241.298,211.92,241.04z"/>
	<path style="fill:#FFE278;" d="M192,160h48c4.418,0,8,3.582,8,8l0,0c0,4.418-3.582,8-8,8h-48c-4.418,0-8-3.582-8-8l0,0
		C184,163.582,187.582,160,192,160z"/>
</g>
<path style="fill:#595A66;" d="M329.28,74.081l4.4-4.4c2.874-3.356,2.483-8.406-0.872-11.28c-2.995-2.565-7.413-2.565-10.407,0
	l-4.4,4.4c-15.216-12.927-34.101-20.761-54-22.4V24h8c4.418,0,8-3.582,8-8s-3.582-8-8-8h-32c-4.418,0-8,3.582-8,8s3.582,8,8,8h8
	V40.4c-19.862,1.633-38.715,9.438-53.92,22.32l-4.4-4.4c-3.356-2.874-8.406-2.483-11.28,0.872c-2.565,2.995-2.565,7.412,0,10.407
	l4.4,4.4c-34.298,40.431-29.329,101.011,11.102,135.309s101.011,29.329,135.309-11.102
	C359.578,162.413,359.607,109.909,329.28,74.081z"/>
<g>
	<circle style="fill:#E9E9E9;" cx="256.004" cy="136.001" r="71.996"/>
	<circle style="fill:#E9E9E9;" cx="256.004" cy="136.001" r="71.996"/>
</g>
<path style="fill:#F48476;" d="M256,64.001v32c22.091,0,40,17.908,40,40h32C328,96.236,295.764,64.001,256,64.001z"/>
<path style="fill:#DDDDDC;" d="M296,136.001c0,22.091-17.908,40-40,40c-22.091,0-40-17.908-40-40s17.908-40,40-40v-32
	c-39.765,0-71.999,32.236-71.999,71.999S216.236,208,256,208C295.764,208,328,175.764,328,136.001H296z"/>
<path style="fill:#595A66;" d="M320,144.001H256c-4.418,0-8-3.582-8-8c0-4.418,3.582-8,8-8H320c4.418,0,8,3.582,8,8
	S324.418,144.001,320,144.001z"/>
<path style="fill:#35363E;" d="M176,144.001c-4.418,0-8-3.582-8-8c0-48.601,39.399-88,88-88c4.418,0,8,3.582,8,8s-3.582,8-8,8
	c-39.765,0-71.999,32.236-71.999,71.999C184,140.418,180.419,144.001,176,144.001z"/>
<path style="fill:#6F707E;" d="M256,224.001c-4.418,0-8-3.582-8-8c0-4.418,3.582-8,8-8c39.765,0,71.999-32.236,71.999-71.999
	c0-4.418,3.582-8,8-8c4.418,0,8,3.582,8,8C343.999,184.601,304.601,224.001,256,224.001z"/>
<g>
</g>
<g>
</g>
<g>
</g>
<g>
</g>
<g>
</g>
<g>
</g>
<g>
</g>
<g>
</g>
<g>
</g>
<g>
</g>
<g>
</g>
<g>
</g>
<g>
</g>
<g>
</g>
<g>
</g>
</svg>
