<?xml version="1.0" encoding="iso-8859-1"?>
<!-- Generator: Adobe Illustrator 19.0.0, SVG Export Plug-In . SVG Version: 6.00 Build 0)  -->
<svg version="1.1" id="Layer_1" xmlns="http://www.w3.org/2000/svg" xmlns:xlink="http://www.w3.org/1999/xlink" x="0px" y="0px"
	 viewBox="0 0 512 512" style="enable-background:new 0 0 512 512;" xml:space="preserve">
<g>
	<circle style="fill:#FF6472;" cx="256" cy="256" r="256"/>
	<circle style="fill:#FF6472;" cx="256" cy="256" r="256"/>
</g>
<path style="fill:#C75163;" d="M296.06,508.873c119.986-18.858,212.297-121.053,215.826-245.481L389.432,140.938l-198.146,8.306
	l-56.46,47.863l71.421,71.421l-9.694,6.753l-24.633,22.78l45.966,45.966l-29.072,13.055l41.126,41.126l-9.006,35.542L296.06,508.873
	z"/>
<g>
	<path style="fill:#F4E3C3;" d="M231.419,438.793L231.419,438.793c-6.16,0-11.529-4.193-13.024-10.169l-21.364-85.459h47.814v82.203
		C244.843,432.783,238.833,438.793,231.419,438.793z"/>
	<path style="fill:#F4E3C3;" d="M171.923,298.06L171.923,298.06c-4.489-4.218-5.532-10.952-2.527-16.329l42.953-76.907
		l34.844,32.744L190.9,297.472C185.823,302.873,177.326,303.137,171.923,298.06z"/>
</g>
<g>
	<path style="fill:#E8D0AA;" d="M340.077,298.06L340.077,298.06c4.489-4.218,5.532-10.952,2.527-16.329l-42.953-76.907
		l-34.844,32.744l56.292,59.904C326.177,302.873,334.674,303.137,340.077,298.06z"/>
	<path style="fill:#E8D0AA;" d="M280.581,438.793L280.581,438.793c6.16,0,11.529-4.193,13.024-10.169l21.364-85.459h-47.814v82.203
		C267.157,432.783,273.167,438.793,280.581,438.793z"/>
</g>
<path style="fill:#31BAFD;" d="M305.162,364.682h-98.326c-15.563,0-27.401-13.974-24.843-29.325l21.411-128.46h105.191
	l21.411,128.46C332.564,350.708,320.726,364.682,305.162,364.682z"/>
<path style="fill:#2B9ED8;" d="M330.006,335.357l-21.409-128.46h-53.169v157.786h49.736
	C320.726,364.682,332.564,350.708,330.006,335.357z"/>
<path style="fill:#E8D0AA;" d="M295.048,218.45c0,21.566-17.482,39.048-39.048,39.048s-39.048-17.482-39.048-39.048H295.048z"/>
<path style="fill:#DBC09A;" d="M255.426,218.45v39.034c0.191,0.003,0.381,0.014,0.574,0.014c21.566,0,39.048-17.482,39.048-39.048
	H255.426z"/>
<path style="fill:#FFD985;" d="M163.373,196.865c10.131-7.621,32.12-33.671,26.486-41.16c-0.355-0.472-0.814-0.859-1.362-1.169
	c0.693-1.662,0.874-3.177,0.359-4.455c-0.515-1.277-1.696-2.243-3.348-2.96c0.179-0.602,0.241-1.198,0.171-1.786
	c-1.136-9.302-35.045-12.812-47.63-11.274s-21.864,10.324-20.728,19.625c0.567,4.636,3.613,8.523,8.083,11.067
	c-1.583,3.686-1.836,7.563-0.417,11.081c1.419,3.518,4.291,6.135,7.987,7.692c-1.455,4.934-0.953,9.847,1.855,13.579
	C140.462,204.595,153.241,204.486,163.373,196.865z"/>
<path style="fill:#FFD15D;" d="M348.627,196.865c-10.131-7.621-32.12-33.671-26.486-41.16c0.355-0.472,0.814-0.859,1.362-1.169
	c-0.693-1.662-0.874-3.177-0.359-4.455c0.515-1.277,1.696-2.243,3.348-2.96c-0.179-0.602-0.241-1.198-0.171-1.786
	c1.136-9.302,35.045-12.812,47.63-11.274s21.864,10.324,20.728,19.625c-0.567,4.636-3.613,8.523-8.083,11.067
	c1.583,3.686,1.836,7.563,0.417,11.081c-1.419,3.518-4.291,6.135-7.987,7.692c1.455,4.934,0.953,9.847-1.855,13.579
	C371.538,204.595,358.759,204.486,348.627,196.865z"/>
<ellipse style="fill:#F4E3C3;" cx="256" cy="167.443" rx="78.893" ry="65.75"/>
<path style="fill:#FED8B2;" d="M256,101.705c-0.193,0-0.381,0.01-0.574,0.012v131.465c0.193,0.002,0.381,0.012,0.574,0.012
	c43.572,0,78.893-29.434,78.893-65.745S299.572,101.705,256,101.705z"/>
<g>
	<circle style="fill:#2B3B4E;" cx="216.557" cy="193.75" r="5.579"/>
	<circle style="fill:#2B3B4E;" cx="287.875" cy="193.75" r="5.579"/>
</g>
<path style="fill:#F9B54C;" d="M230.5,129.97c0,0-35.063,79.848-49.162,73.069c-22.113-10.63-7.756-88.871,48.712-97.427
	C254.407,101.924,230.5,129.97,230.5,129.97z"/>
<path style="fill:#FFD15D;" d="M197.029,121.627c0,0,35.063,52.064,58.971,32.673c0,0,31.344,47.018,52.595,26.298
	c0,0,10.093,42.501,26.298,26.298s10.361-93.237-52.595-105.191C222.058,90.267,197.029,121.627,197.029,121.627z"/>
<path style="fill:#F9B54C;" d="M282.298,101.705c-9.899-1.879-18.828-2.586-26.872-2.484v55.515
	c0.191-0.145,0.384-0.281,0.574-0.436c0,0,31.344,47.018,52.595,26.298c0,0,10.093,42.501,26.298,26.298
	C351.098,190.692,345.253,113.659,282.298,101.705z"/>
<g>
</g>
<g>
</g>
<g>
</g>
<g>
</g>
<g>
</g>
<g>
</g>
<g>
</g>
<g>
</g>
<g>
</g>
<g>
</g>
<g>
</g>
<g>
</g>
<g>
</g>
<g>
</g>
<g>
</g>
</svg>
