<?xml version="1.0" encoding="iso-8859-1"?>
<!-- Generator: Adobe Illustrator 19.0.0, SVG Export Plug-In . SVG Version: 6.00 Build 0)  -->
<svg version="1.1" id="Layer_1" xmlns="http://www.w3.org/2000/svg" xmlns:xlink="http://www.w3.org/1999/xlink" x="0px" y="0px"
	 viewBox="0 0 512 512" style="enable-background:new 0 0 512 512;" xml:space="preserve">
<circle style="fill:#F4E3C3;" cx="256" cy="256" r="256"/>
<path style="fill:#F2CEAA;" d="M510.018,287.949L355.752,133.684L204.566,264.016L129.362,332.7l59.79,59.79l-34.983,21.102
	l98.364,98.364c1.155,0.016,2.308,0.043,3.468,0.043C386.565,512,494.292,414.255,510.018,287.949z"/>
<path style="fill:#935635;" d="M364.606,327.111c0,59.982-48.624,71.111-108.606,71.111s-108.606-11.13-108.606-71.111
	S196.018,218.505,256,218.505S364.606,267.13,364.606,327.111z"/>
<g>
	<path style="fill:#804000;" d="M256,218.505c-0.193,0-0.381,0.014-0.574,0.014v179.7c0.193,0,0.381,0.003,0.574,0.003
		c59.982,0,108.606-11.13,108.606-71.111S315.982,218.505,256,218.505z"/>
	<path style="fill:#804000;" d="M171.916,326.258c-5.244,21.259-29.024,16.413-42.553,6.442
		c-13.529-9.971-12.826-31.101-2.855-44.63c9.971-13.529,57.463-60.957,70.992-50.986
		C211.03,247.055,185.437,271.46,171.916,326.258z"/>
</g>
<path style="fill:#6D3501;" d="M340.083,326.258c5.244,21.259,29.024,16.413,42.553,6.442s12.826-31.101,2.855-44.63
	c-9.971-13.529-57.463-60.957-70.992-50.986C300.97,247.055,326.563,271.46,340.083,326.258z"/>
<circle style="fill:#935635;" cx="185.63" cy="159.461" r="39.096"/>
<g>
	<circle style="fill:#804000;" cx="185.63" cy="159.461" r="29.375"/>
	<circle style="fill:#804000;" cx="326.37" cy="159.461" r="39.096"/>
</g>
<circle style="fill:#6D3501;" cx="326.37" cy="159.461" r="29.375"/>
<path style="fill:#B97850;" d="M352.539,195.724c0,44.575-43.222,80.71-96.539,80.71s-96.539-36.135-96.539-80.71
	s43.222-67.038,96.539-67.038S352.539,151.149,352.539,195.724z"/>
<path style="fill:#935635;" d="M256,128.686c-0.193,0-0.381,0.007-0.574,0.007V276.42c0.193,0,0.381,0.012,0.574,0.012
	c53.317,0,96.539-36.135,96.539-80.71C352.539,151.149,309.317,128.686,256,128.686z"/>
<circle style="fill:#57442F;" cx="217.005" cy="202.559" r="6.685"/>
<circle style="fill:#3F2F1F;" cx="294.995" cy="202.559" r="6.685"/>
<g>
	<path style="fill:#57442F;" d="M262.646,214.635l-5.041,8.732c-0.714,1.234-2.495,1.234-3.208,0l-5.041-8.732
		c-0.714-1.234,0.178-2.779,1.603-2.779h10.081C262.466,211.856,263.358,213.401,262.646,214.635z"/>
	<path style="fill:#57442F;" d="M275.825,228.654v11.636c0,4.515-3.674,8.189-8.189,8.189s-8.189-3.674-8.189-8.189v-11.738
		c1.077-0.609,1.998-1.496,2.634-2.6l5.041-8.73l0.002-0.002c1.25-2.165,1.25-4.856-0.002-7.021
		c-1.252-2.167-3.581-3.512-6.082-3.512h-10.081c-2.501,0-4.832,1.345-6.082,3.512c-1.252,2.165-1.252,4.856,0,7.023l5.041,8.732
		c0.638,1.103,1.557,1.989,2.634,2.598v11.738c0,4.515-3.674,8.189-8.189,8.189c-4.515,0-8.189-3.674-8.189-8.189v-11.636h-6.896
		v11.636c0,8.318,6.766,15.084,15.084,15.084c4.679,0,8.868-2.141,11.636-5.496c2.769,3.355,6.958,5.496,11.636,5.496
		c8.318,0,15.084-6.766,15.084-15.084v-11.636H275.825z"/>
</g>
<path style="fill:#3F2F1F;" d="M275.825,228.654v11.636c0,4.515-3.674,8.189-8.189,8.189s-8.189-3.674-8.189-8.189v-11.738
	c1.077-0.609,1.998-1.496,2.634-2.6l5.041-8.73l0.002-0.002c1.25-2.165,1.25-4.856-0.002-7.021
	c-1.252-2.167-3.581-3.512-6.082-3.512h-5.615v43.816c0.191-0.207,0.395-0.405,0.574-0.624c2.769,3.355,6.958,5.496,11.636,5.496
	c8.318,0,15.084-6.766,15.084-15.084v-11.636h-6.896V228.654z"/>
<circle style="fill:#B97850;" cx="184.889" cy="384" r="42.667"/>
<circle style="fill:#935635;" cx="327.111" cy="384" r="42.667"/>
<g>
</g>
<g>
</g>
<g>
</g>
<g>
</g>
<g>
</g>
<g>
</g>
<g>
</g>
<g>
</g>
<g>
</g>
<g>
</g>
<g>
</g>
<g>
</g>
<g>
</g>
<g>
</g>
<g>
</g>
</svg>
